<?xml version="1.0" standalone="no"?>
<!DOCTYPE svg PUBLIC "-//W3C//DTD SVG 20010904//EN"
 "http://www.w3.org/TR/2001/REC-SVG-20010904/DTD/svg10.dtd">
<svg version="1.0" xmlns="http://www.w3.org/2000/svg"
 width="80" height="80" viewBox="0 0 300.000000 300.000000"
 preserveAspectRatio="xMidYMid meet">
<metadata>
Created by potrace 1.10, written by Peter Selinger 2001-2011
</metadata>
<g transform="translate(0.000000,300.000000) scale(0.100000,-0.100000)"
fill="#000000" stroke="none">
<path d="M1348 2764 c-16 -8 -28 -18 -28 -22 0 -4 -28 -14 -61 -21 -57 -13
-68 -20 -138 -91 -42 -43 -82 -85 -90 -95 -11 -13 -23 -15 -62 -10 -33 5 -63
2 -97 -9 -27 -9 -66 -19 -88 -21 -21 -3 -46 -12 -54 -20 -13 -14 -11 -18 15
-40 44 -35 84 -50 103 -38 29 18 25 33 -10 33 -18 0 -39 4 -47 9 -19 12 -5 31
24 31 13 0 36 5 52 11 15 6 65 10 110 10 72 -2 82 0 87 17 4 11 37 51 75 89
59 59 78 73 137 93 38 12 73 29 77 36 10 17 47 18 47 2 0 -7 -12 -35 -25 -63
-27 -54 -32 -104 -13 -123 21 -21 78 -13 133 18 33 19 76 33 112 38 50 6 60
11 71 35 8 15 24 32 36 37 30 11 136 24 136 16 0 -11 -52 -91 -61 -94 -15 -6
-10 -42 5 -42 13 0 49 47 80 108 21 41 7 75 -27 67 -12 -3 -45 -7 -72 -9 -71
-7 -100 -20 -121 -55 -14 -24 -23 -29 -43 -25 -18 4 -52 -7 -109 -36 -45 -23
-90 -40 -99 -38 -23 4 -19 46 8 102 21 45 24 69 9 97 -13 23 -35 24 -72 3z"/>
<path d="M1944 2621 c-47 -8 -88 -32 -104 -60 -13 -25 7 -41 24 -20 23 29 48
42 106 54 l60 12 -7 -26 c-3 -14 -10 -34 -14 -43 -5 -9 -9 -30 -9 -47 0 -38
29 -55 77 -48 l35 6 -7 -47 c-4 -26 -7 -71 -6 -101 0 -48 4 -57 35 -85 32 -29
64 -111 50 -126 -3 -3 -42 -5 -87 -5 -64 0 -92 5 -128 23 -58 28 -59 28 -59
-9 0 -21 9 -38 28 -54 15 -12 35 -37 45 -54 17 -29 17 -31 1 -31 -10 0 -28 9
-40 21 -17 16 -37 21 -90 23 -71 3 -174 25 -174 38 0 16 -34 38 -59 38 -26 0
-28 -4 -44 -77 -9 -43 -21 -118 -27 -167 -5 -50 -14 -94 -20 -100 -17 -17 -11
-36 10 -36 22 0 24 6 40 135 6 50 16 102 21 117 6 14 11 41 12 59 2 41 23 49
38 15 8 -16 20 -26 33 -26 30 0 66 -11 66 -20 0 -4 -11 -12 -25 -18 -20 -9
-25 -19 -25 -47 0 -34 1 -35 38 -35 25 0 45 7 55 18 22 25 22 29 -10 57 l-28
23 69 -4 c41 -2 80 -11 95 -21 30 -19 94 -21 116 -3 18 15 20 40 2 40 -7 0
-25 18 -40 40 -29 44 -29 44 28 29 60 -17 79 -17 142 -5 l58 12 -3 38 c-6 61
-29 116 -63 146 -31 27 -31 27 -29 116 2 49 2 96 2 105 -3 26 -34 33 -50 12
-10 -14 -16 -15 -30 -6 -9 6 -16 19 -14 29 2 11 5 30 6 43 2 14 8 27 14 29 7
2 12 15 12 28 0 22 -4 24 -42 23 -24 -1 -62 -5 -84 -8z"/>
<path d="M1517 2497 c-48 -15 -97 -62 -97 -94 0 -31 28 -30 40 2 7 17 17 25
34 25 16 0 23 5 22 17 -1 13 12 21 49 30 90 24 103 18 146 -66 21 -40 36 -78
33 -83 -4 -5 -25 -18 -48 -27 -53 -23 -126 -17 -133 10 -9 34 -33 22 -33 -16
l0 -34 99 2 c90 2 102 4 125 26 14 14 26 34 26 46 0 21 -20 72 -41 105 -5 8
-14 27 -20 43 -11 26 -13 27 -87 26 -43 0 -94 -6 -115 -12z"/>
<path d="M746 2364 c-50 -19 -91 -53 -138 -119 -29 -41 -37 -60 -33 -78 9 -34
-19 -43 -55 -17 -15 11 -33 20 -39 20 -6 0 -11 5 -11 10 0 6 -9 10 -20 10 -18
0 -20 -7 -20 -65 0 -36 4 -73 10 -83 49 -89 68 -150 66 -214 -1 -55 1 -68 14
-68 12 0 15 14 14 78 0 83 -3 95 -36 157 -22 41 -50 140 -41 149 3 2 23 -8 46
-24 38 -26 44 -27 72 -16 24 10 30 19 29 42 0 16 2 31 5 34 3 3 22 28 41 55
39 56 66 82 95 90 51 16 75 29 75 41 0 17 -22 16 -74 -2z"/>
<path d="M857 2278 c-62 -59 -66 -66 -68 -112 -3 -42 1 -52 25 -72 42 -37 121
-34 180 6 53 36 88 77 84 99 -5 24 -27 24 -37 -1 -18 -48 -109 -102 -159 -94
-45 7 -62 23 -62 57 0 39 115 153 145 143 11 -3 35 -8 53 -11 25 -4 32 -2 32
11 0 10 -9 16 -24 16 -14 0 -28 5 -31 10 -3 6 -21 10 -39 10 -27 0 -46 -12
-99 -62z"/>
<path d="M2215 2040 c-3 -5 12 -27 33 -47 26 -25 44 -53 52 -83 7 -25 21 -62
31 -82 12 -23 19 -58 19 -93 0 -42 4 -55 15 -55 8 0 12 -6 10 -12 -2 -7 -6
-43 -9 -80 -4 -54 -2 -68 9 -68 20 0 28 53 24 156 -3 58 -8 89 -17 92 -7 2
-10 13 -6 27 8 31 -14 95 -32 95 -9 0 -14 10 -14 28 0 27 -23 71 -56 111 -19
22 -49 28 -59 11z"/>
<path d="M1225 1966 c-8 -19 -15 -38 -15 -41 0 -4 -10 -29 -22 -58 l-22 -51
-7 34 c-4 19 -3 42 2 52 11 21 4 38 -17 38 -8 0 -14 7 -14 15 0 27 -15 16 -39
-31 -14 -25 -34 -51 -45 -56 -29 -13 -76 -77 -83 -110 -3 -16 -8 -28 -12 -28
-20 -1 -34 -23 -38 -59 -9 -74 27 -45 75 60 22 47 44 78 76 104 25 21 46 44
46 51 0 8 4 14 10 14 5 0 9 -17 8 -37 -4 -117 60 -106 98 16 10 33 21 61 24
61 3 0 11 -20 18 -45 7 -25 16 -45 21 -45 6 0 31 -19 58 -41 26 -23 62 -48 80
-55 17 -8 34 -18 37 -23 8 -13 48 -1 43 13 -1 6 -24 21 -49 33 -25 12 -63 38
-83 58 -21 19 -42 35 -46 35 -11 0 -41 58 -49 95 -9 44 -37 45 -55 1z"/>
<path d="M645 1880 c-10 -11 -15 -20 -10 -20 4 0 3 -6 -2 -12 -5 -7 -20 -41
-33 -75 -12 -35 -27 -63 -32 -63 -6 0 -8 9 -5 20 4 15 0 20 -15 20 -16 0 -19
-6 -16 -37 2 -31 7 -39 26 -41 24 -4 23 -22 -5 -89 -13 -32 -11 -211 2 -253 4
-14 -5 -20 -40 -30 -25 -7 -47 -16 -50 -20 -7 -12 18 -83 48 -134 16 -27 36
-68 44 -90 9 -23 20 -45 24 -50 9 -11 -5 -50 -35 -96 -59 -87 -31 -341 43
-397 41 -32 56 -1 17 36 -22 21 -31 44 -55 136 -21 85 19 244 72 284 16 11 16
15 4 30 -8 9 -22 36 -31 61 -10 25 -31 66 -47 93 -16 26 -29 51 -29 56 0 5 22
2 48 -6 44 -14 66 -38 69 -73 1 -19 47 -92 69 -109 14 -11 23 -24 20 -29 -3
-5 5 -18 17 -29 12 -11 31 -31 42 -45 11 -14 30 -30 43 -37 12 -6 22 -18 22
-26 0 -8 13 -22 29 -31 17 -10 28 -20 26 -23 -1 -3 24 -6 57 -7 48 0 64 -4 75
-20 8 -10 17 -19 21 -20 20 -2 42 -18 42 -29 0 -7 7 -16 16 -19 8 -3 12 -11 8
-18 -5 -8 0 -9 14 -6 20 6 26 -1 24 -23 -2 -11 47 3 59 17 20 24 16 48 -13 76
-16 15 -32 28 -37 28 -4 0 -18 9 -31 20 l-23 20 34 -7 c19 -3 40 -12 47 -19 7
-7 19 -11 27 -8 8 3 36 -1 63 -10 29 -10 61 -14 80 -10 18 4 32 2 32 -3 0 -18
-34 -40 -71 -47 -25 -4 -45 -18 -67 -46 -18 -21 -32 -43 -32 -48 0 -5 -16 -9
-36 -10 -20 -1 -39 -4 -42 -6 -8 -9 -43 14 -37 24 3 5 -3 9 -12 9 -10 0 -37 0
-61 2 -24 1 -49 -4 -55 -10 -6 -6 -21 -11 -34 -11 -14 0 -23 -6 -23 -15 0 -8
-5 -24 -12 -34 -10 -16 -21 -18 -92 -14 -45 3 -105 11 -135 19 -56 14 -71 12
-71 -11 0 -14 12 -19 80 -29 19 -3 45 -7 58 -10 12 -2 25 1 28 6 3 5 13 6 23
2 9 -3 37 -6 64 -5 44 2 47 1 47 -24 0 -52 98 -112 158 -96 20 6 31 19 44 52
9 24 17 54 17 65 1 25 43 56 79 58 18 1 36 15 60 48 25 32 45 49 66 53 57 12
62 15 84 54 25 44 48 66 71 66 13 0 16 13 17 75 0 106 34 203 88 253 80 75
173 105 190 61 3 -8 17 -14 31 -14 28 0 69 -23 101 -57 12 -13 26 -23 33 -23
6 0 11 -5 11 -11 0 -8 13 -9 39 -5 30 4 44 1 64 -14 37 -30 85 -26 127 10 19
17 49 36 65 44 17 8 40 24 51 35 15 13 29 18 44 14 21 -6 22 -3 16 21 -4 17 2
52 19 101 28 84 32 137 11 154 -13 11 -155 33 -225 35 l-35 1 -13 -70 c-7 -38
-14 -130 -15 -202 -2 -73 -5 -133 -8 -133 -3 0 -14 9 -24 21 -14 17 -26 20
-59 17 -36 -3 -45 0 -68 25 -42 45 -81 67 -121 67 -27 0 -38 4 -38 15 0 8 -9
15 -20 15 -16 0 -20 7 -20 34 0 48 -18 92 -45 110 -27 18 -90 21 -100 6 -10
-16 -19 -12 -37 19 -15 27 -20 29 -70 28 -52 -2 -53 -3 -53 -32 0 -23 5 -31
21 -33 16 -2 24 -13 29 -40 4 -20 15 -56 26 -79 22 -49 23 -53 8 -53 -14 0
-33 20 -42 43 -8 22 -27 13 -27 -13 0 -24 -17 -34 -52 -32 -20 2 -28 -2 -28
-13 0 -13 13 -15 85 -12 47 2 91 9 97 15 9 9 4 36 -21 108 -26 77 -30 99 -19
105 9 6 19 -3 32 -29 10 -20 20 -39 22 -41 1 -2 15 6 30 18 15 11 34 21 44 21
26 0 61 -44 66 -84 4 -33 1 -37 -30 -50 -65 -27 -146 -95 -166 -139 -17 -39
-60 -205 -60 -237 -1 -8 -11 -28 -24 -44 -21 -25 -28 -28 -67 -23 -63 7 -152
27 -164 37 -13 10 -67 24 -83 21 -6 -1 -27 4 -45 12 -72 32 -89 37 -97 32 -5
-3 -12 0 -16 6 -3 6 -26 20 -50 31 -24 10 -44 25 -44 33 0 7 -10 15 -22 17
-16 2 -41 30 -81 88 -73 108 -93 146 -101 193 -4 21 -12 37 -19 36 -7 -1 -27
2 -44 6 -28 6 -33 12 -34 39 0 17 -2 67 -3 111 -3 77 15 168 35 181 13 8 11
42 -3 47 -10 3 -10 7 -2 18 6 8 21 44 34 82 25 72 47 84 42 23 -3 -32 0 -36
22 -36 13 0 26 -5 28 -12 7 -21 30 4 25 28 -3 16 0 24 9 24 8 0 13 -3 12 -7
-1 -5 4 -28 11 -52 12 -41 70 -111 93 -111 18 0 6 41 -16 56 -14 8 -33 37 -42
62 -10 26 -21 52 -25 57 -4 6 -9 21 -11 35 -1 14 -10 26 -20 28 -12 2 -18 -7
-23 -37 -10 -61 -35 -55 -35 9 0 46 -2 50 -23 50 -13 0 -32 -9 -42 -20z m1640
-434 c60 -5 105 -21 105 -37 0 -8 -11 -9 -32 -5 -64 14 -152 25 -157 20 -3 -3
-6 -46 -6 -97 -2 -208 -3 -212 -30 -227 -14 -7 -27 -11 -30 -8 -3 3 1 39 9 79
8 41 15 101 15 134 1 121 15 159 55 150 11 -2 44 -6 71 -9z m0 -51 c22 -5 52
-7 68 -7 32 1 32 1 7 -91 -19 -69 -25 -78 -86 -126 -12 -9 -51 -31 -56 -31 -2
0 -3 18 -3 39 0 22 3 37 6 35 7 -4 5 27 -6 114 -2 17 1 32 6 32 6 0 7 5 4 10
-3 6 -1 10 5 10 7 0 9 7 6 16 -3 8 -2 13 2 11 4 -3 25 -8 47 -12z m-1658 -134
c12 -9 23 -22 23 -30 0 -25 59 -136 90 -171 17 -19 36 -46 41 -59 6 -14 15
-21 23 -18 15 6 40 -16 30 -26 -11 -11 137 -99 171 -102 45 -4 86 -28 124 -70
17 -20 35 -34 40 -31 12 8 50 -54 44 -71 -8 -20 -31 -16 -38 7 -3 11 -15 20
-26 20 -10 0 -19 5 -19 10 0 27 -164 131 -172 110 -2 -4 -13 -11 -25 -14 -16
-5 -23 -3 -23 6 0 7 -22 33 -48 56 -83 77 -92 86 -92 99 0 7 -17 30 -38 51
-33 32 -57 72 -105 179 -9 20 -17 23 -58 21 -53 -3 -65 3 -55 27 13 36 68 39
113 6z m490 -701 c-3 -25 -13 -62 -21 -82 -22 -51 -60 -52 -110 -4 -38 35 -44
62 -23 99 19 34 27 37 96 35 l63 -3 -5 -45z"/>
<path d="M1082 1748 c-5 -7 -12 -29 -14 -48 -3 -34 -2 -35 38 -38 30 -2 45 2
59 18 14 16 16 23 7 32 -7 7 -12 20 -12 30 0 14 -8 18 -34 18 -18 0 -38 -6
-44 -12z"/>
<path d="M1748 1173 c-23 -6 -73 -83 -53 -83 8 0 21 15 29 34 10 23 22 35 38
38 12 2 19 6 13 9 -5 3 -17 4 -27 2z"/>
<path d="M2390 1163 c0 -5 7 -27 15 -50 10 -29 15 -93 16 -220 1 -98 5 -182 9
-188 15 -18 -7 -96 -34 -124 -31 -32 -32 -41 -7 -41 47 0 91 106 73 176 -6 23
-14 119 -17 215 -8 221 -10 239 -35 239 -11 0 -20 -3 -20 -7z"/>
<path d="M1792 1140 c-14 -36 0 -54 52 -68 25 -6 46 -16 46 -22 0 -18 35 -11
48 10 11 18 10 19 -13 10 -25 -9 -37 3 -12 13 6 3 -2 3 -19 0 -17 -3 -35 0
-38 6 -4 5 -13 8 -21 5 -10 -4 -16 3 -20 23 -11 47 -12 49 -23 23z"/>
<path d="M1670 1070 c6 -41 -1 -68 -19 -73 -11 -2 -25 -24 -36 -56 -11 -28
-24 -51 -30 -51 -13 0 -35 -84 -35 -131 0 -16 5 -29 10 -29 6 0 10 6 10 14 0
8 6 16 14 19 9 4 14 18 14 35 -1 16 9 50 21 74 11 24 21 49 21 54 0 5 12 17
28 27 l27 17 -30 -6 -30 -7 28 22 c15 12 27 32 27 44 0 15 3 18 11 10 8 -8 8
-17 0 -32 -8 -14 -8 -21 -1 -21 5 0 10 7 10 15 0 15 56 35 77 28 6 -3 12 -12
12 -21 2 -68 2 -84 -4 -101 -3 -10 -17 -22 -30 -25 -13 -3 -27 -15 -30 -27 -5
-15 -12 -19 -28 -15 -12 3 -25 6 -29 6 -14 0 -8 61 7 76 8 9 15 21 15 27 -1 7
-12 -1 -25 -18 -25 -30 -36 -105 -15 -105 6 0 10 -7 10 -15 0 -19 42 -20 79
-1 27 15 88 82 109 121 13 25 4 73 -19 103 -10 13 -19 23 -21 23 -2 0 -20 4
-42 9 -26 6 -45 5 -58 -3 -16 -10 -22 -9 -34 8 -11 14 -15 15 -14 5z"/>
<path d="M1608 1041 c-16 -9 -28 -22 -28 -28 0 -19 8 -16 37 12 33 30 28 38
-9 16z"/>
<path d="M1970 1045 c-7 -8 -9 -15 -6 -15 4 0 -2 -13 -13 -28 -11 -15 -21 -46
-23 -68 -2 -21 -7 -39 -13 -39 -34 -2 -145 -107 -126 -119 15 -10 40 4 47 26
6 19 7 19 25 2 19 -17 21 -16 59 21 22 22 42 46 45 56 3 9 23 35 45 59 22 23
37 47 33 52 -3 6 -9 5 -13 -2 -4 -7 -13 -9 -19 -6 -6 4 -10 4 -9 -1 5 -16 -35
-64 -45 -54 -14 14 0 64 16 55 7 -4 9 -4 6 0 -4 4 -3 23 1 42 9 38 8 40 -10
19z"/>
<path d="M2060 1021 c-25 -7 -25 -7 -4 -19 21 -11 44 -1 44 20 0 9 -5 9 -40
-1z"/>
<path d="M1716 955 c-4 -10 1 -15 14 -15 27 0 25 -17 -2 -31 -24 -13 -38 -28
-38 -43 0 -5 10 0 23 12 13 12 31 22 40 22 11 0 17 8 17 23 0 40 -41 64 -54
32z"/>
<path d="M635 950 c-10 -16 5 -70 19 -70 21 0 24 10 13 46 -11 35 -21 42 -32
24z"/>
<path d="M1507 749 c-3 -11 -11 -19 -19 -18 -29 3 -49 -1 -43 -11 15 -25 85
-1 85 29 0 20 -18 20 -23 0z"/>
<path d="M2218 729 c-44 -23 -354 -79 -443 -79 -44 0 -107 -8 -140 -17 -33 -9
-85 -16 -115 -16 -30 0 -58 -4 -61 -10 -7 -11 -41 -11 -104 -2 -34 5 -44 2
-67 -20 -46 -43 -42 -47 77 -62 62 -9 208 -2 355 16 46 5 86 8 89 6 10 -11
-13 -19 -67 -22 -31 -3 -64 -7 -72 -11 -47 -19 -276 -23 -350 -6 -122 29 -120
28 -120 6 0 -26 8 -31 62 -40 79 -13 531 -5 590 11 38 10 43 27 7 27 -10 0
-19 4 -19 9 0 5 -2 16 -5 23 -4 11 6 14 42 13 37 0 48 -4 51 -17 2 -10 -1 -18
-7 -18 -6 0 -11 -6 -11 -14 0 -15 15 -10 60 19 8 5 26 11 40 13 59 7 214 74
307 131 48 30 60 68 19 57 -14 -3 -27 -2 -30 3 -7 10 -69 10 -88 0z m62 -29
c0 -5 -9 -10 -19 -10 -11 0 -26 -7 -35 -15 -8 -9 -19 -17 -23 -18 -4 -1 -7 -5
-6 -8 2 -6 -38 -18 -85 -24 -13 -2 -29 -8 -35 -13 -22 -18 -82 -32 -157 -37
-99 -6 -184 -14 -245 -21 -27 -4 -81 -8 -120 -9 -38 -2 -98 -6 -133 -8 -36 -3
-60 -1 -56 4 5 9 -24 14 -56 10 -9 -2 -6 4 8 14 20 15 30 15 73 5 43 -10 52
-10 67 3 10 9 23 13 32 8 16 -8 186 20 177 29 -3 3 9 6 26 6 154 6 216 6 226
0 6 -4 11 0 11 9 0 11 7 16 23 14 12 -1 30 2 40 6 10 4 38 8 63 9 28 1 44 6
44 14 0 6 7 12 15 12 8 0 15 -6 15 -12 0 -10 2 -10 8 -1 4 6 20 14 34 17 15 2
35 9 45 15 23 13 63 14 63 1z"/>
<path d="M2456 573 c-12 -12 -6 -41 9 -47 10 -3 15 -19 15 -48 0 -34 -7 -52
-31 -81 -17 -21 -33 -36 -36 -33 -3 2 -38 -11 -78 -31 -54 -25 -78 -32 -92
-25 -38 19 -89 13 -129 -15 -43 -29 -79 -35 -234 -35 -76 0 -110 5 -172 25
-70 24 -80 25 -120 13 -29 -8 -52 -10 -69 -4 -13 5 -60 6 -104 3 -60 -5 -91
-3 -125 9 -32 11 -64 14 -110 10 -45 -5 -90 -1 -145 11 -76 16 -137 28 -214
40 -45 7 -51 12 -51 40 0 19 -7 26 -27 31 -55 12 -63 16 -73 34 -6 11 -17 17
-25 14 -36 -14 -1 -58 59 -75 30 -8 36 -14 31 -29 -4 -12 0 -22 12 -28 18 -10
103 -29 158 -36 17 -2 37 -6 45 -9 24 -9 201 -27 250 -26 25 1 72 -5 106 -14
43 -10 76 -12 113 -6 31 5 63 4 77 -1 34 -13 71 -12 111 2 25 9 38 9 52 1 9
-6 64 -19 120 -29 90 -16 116 -16 209 -6 82 9 114 17 137 34 24 18 44 22 115
23 74 1 94 6 151 33 98 48 113 68 117 156 4 68 3 73 -21 89 -14 9 -27 13 -31
10z"/>
<path d="M2325 550 c-3 -5 -14 -10 -23 -10 -10 0 -26 -9 -35 -21 -13 -15 -25
-19 -43 -15 -17 5 -30 0 -45 -15 -12 -12 -32 -23 -45 -25 -12 -1 -35 -9 -51
-17 -101 -54 -159 -77 -196 -78 -55 -1 -163 -31 -157 -44 13 -27 249 -11 268
19 13 21 85 42 202 60 9 1 27 10 40 19 14 9 38 17 55 17 33 0 80 34 70 51 -4
5 -8 9 -11 9 -3 0 -3 -4 1 -10 6 -10 -45 -40 -70 -40 -9 0 -36 -9 -60 -20 -24
-11 -51 -17 -59 -14 -9 4 -22 1 -29 -4 -12 -10 -42 -11 -51 -1 -2 2 2 10 10
17 11 10 14 10 14 0 1 -10 4 -9 13 2 18 22 75 50 101 50 13 0 34 8 47 18 13
10 36 24 52 31 15 8 27 18 27 23 0 11 -18 10 -25 -2z"/>
<path d="M2389 452 c-9 -22 -21 -32 -35 -32 -12 0 -35 -7 -50 -15 -16 -8 -41
-15 -56 -15 -26 0 -88 -43 -78 -54 3 -3 18 6 32 19 16 15 37 24 52 23 24 -2
24 -3 9 -20 -9 -10 -11 -18 -5 -18 6 0 13 4 17 9 7 12 64 41 79 41 6 0 19 9
29 20 10 12 22 18 27 15 12 -7 12 12 1 39 -7 18 -9 16 -22 -12z"/>
<path d="M2087 350 c-24 -4 -51 -20 -70 -40 -33 -34 -28 -33 36 7 21 13 49 22
64 21 14 -2 28 3 30 10 5 13 -3 13 -60 2z"/>
</g>
</svg>
